# Blender 5.1.0
# www.blender.org
mtllib city.mtl
o Cube
v 10.586911 0.000000 -9.375028
v -10.586911 0.000000 -9.375028
v 10.586911 0.000000 9.375028
v -10.586911 0.000000 9.375028
v 2.603858 0.003924 -6.851599
v 1.002830 0.003924 -5.250572
v 0.588631 2.417116 -6.439454
v 0.588631 0.016484 -6.439454
v 2.603858 1.313949 -5.250572
v 2.603858 0.003924 -5.250572
v 1.002830 1.313949 -6.851599
v 0.588631 2.417116 -5.262191
v 0.588631 0.016484 -5.262191
v 1.002830 0.003924 -6.851599
v -0.588631 0.016484 -5.262191
v -0.588631 2.417116 -6.439454
v 1.002830 1.313949 -5.250572
v -0.588631 0.016484 -6.439454
v -0.588631 2.417116 -5.262191
v 2.603858 1.313949 -6.851599
v -2.212193 0.005636 -5.271872
v -2.212193 2.005636 -5.271872
v -2.212193 0.005636 -7.271872
v -2.212193 2.005636 -7.271872
v -0.932594 0.005636 -5.271872
v -0.932594 2.005636 -5.271872
v -0.932594 0.005636 -7.271872
v -0.932594 2.005636 -7.271872
v -1.000000 -0.000464 -1.701442
v -1.000000 1.000000 -1.701442
v -1.000000 -0.000464 -3.701442
v -1.000000 1.000000 -3.701442
v 1.000000 -0.000464 -1.701442
v 1.000000 1.000000 -1.701442
v 1.000000 -0.000464 -3.701442
v 1.000000 1.000000 -3.701442
v -2.347311 -0.003316 -1.777204
v -2.347311 1.996684 -1.777204
v -2.347311 -0.003316 -3.777203
v -2.347311 1.996684 -3.777203
v -1.392920 -0.003316 -1.777204
v -1.392920 1.996684 -1.777204
v -1.392920 -0.003316 -3.777203
v -1.392920 1.996684 -3.777203
v 1.102402 -0.001769 -3.724530
v 1.102402 1.000000 -3.724530
v 1.102402 -0.001769 -4.998997
v 1.102402 1.000000 -5.025178
v 3.102402 -0.001769 -3.724530
v 3.102402 1.000000 -3.724530
v 3.102402 -0.001769 -5.025178
v 3.102402 1.000000 -5.025178
vn 1.0000 -0.0000 -0.0000
vn -0.0000 1.0000 -0.0000
vn -0.0000 -1.0000 -0.0000
vn -1.0000 -0.0000 -0.0000
vn -0.0000 -0.0000 1.0000
vn -0.0000 -0.0000 -1.0000
vn -0.0065 -0.0131 -0.9999
vt 0.674361 0.859307
vt 0.604247 0.859307
vt 0.604247 0.773619
vt 0.674361 0.773619
vt 0.017775 0.575803
vt 0.017775 0.017775
vt 0.575803 0.017775
vt 0.575803 0.575803
vt 0.328737 0.839633
vt 0.243049 0.839633
vt 0.243049 0.753945
vt 0.328737 0.753945
vt 0.207499 0.753945
vt 0.207499 0.839633
vt 0.121811 0.839633
vt 0.121811 0.753945
vt 0.515664 0.861075
vt 0.445551 0.861075
vt 0.445551 0.775387
vt 0.515664 0.775387
vt 0.611353 0.574034
vt 0.611353 0.445551
vt 0.674361 0.445551
vt 0.674361 0.574034
vt 0.611353 0.738068
vt 0.611353 0.609585
vt 0.674361 0.609585
vt 0.674361 0.738068
vt 0.813947 0.752177
vt 0.884060 0.752176
vt 0.884060 0.837865
vt 0.813947 0.837865
vt 0.358079 0.875183
vt 0.358079 0.938191
vt 0.295071 0.938191
vt 0.295071 0.875183
vt 0.878583 0.531239
vt 0.808470 0.531239
vt 0.808470 0.445551
vt 0.878583 0.445551
vt 0.445551 0.739837
vt 0.445551 0.611353
vt 0.508559 0.611353
vt 0.508559 0.739837
vt 0.709911 0.574034
vt 0.709911 0.445551
vt 0.772919 0.445551
vt 0.772919 0.574034
vt 0.772919 0.894768
vt 0.772919 0.957776
vt 0.709911 0.957776
vt 0.709911 0.894768
vt 0.160367 0.718394
vt 0.160367 0.611353
vt 0.267408 0.611353
vt 0.267408 0.718394
vt 0.017775 0.860986
vt 0.017775 0.753945
vt 0.086260 0.753945
vt 0.086260 0.860986
vt 0.611353 0.267408
vt 0.611353 0.160367
vt 0.718394 0.160367
vt 0.718394 0.267408
vt 0.753945 0.267408
vt 0.753945 0.160367
vt 0.822430 0.160367
vt 0.822430 0.267408
vt 0.822430 0.410000
vt 0.753945 0.410000
vt 0.753945 0.302959
vt 0.822430 0.302959
vt 0.778396 0.859218
vt 0.709911 0.859218
vt 0.709911 0.752176
vt 0.778396 0.752176
vt 0.911526 0.410000
vt 0.857980 0.410000
vt 0.857980 0.302959
vt 0.911526 0.302959
vt 0.914133 0.445551
vt 0.967679 0.445551
vt 0.967679 0.552592
vt 0.914133 0.552592
vt 0.912652 0.124817
vt 0.859107 0.124817
vt 0.859107 0.017775
vt 0.912652 0.017775
vt 0.957788 0.716625
vt 0.904242 0.716625
vt 0.904242 0.609583
vt 0.957788 0.609583
vt 0.124817 0.611353
vt 0.124817 0.718394
vt 0.017775 0.718394
vt 0.017775 0.611353
vt 0.718394 0.017775
vt 0.718394 0.124817
vt 0.611353 0.124817
vt 0.611353 0.017775
vt 0.611353 0.410000
vt 0.611353 0.302959
vt 0.718394 0.302959
vt 0.718394 0.410000
vt 0.208441 0.982225
vt 0.208441 0.875183
vt 0.259520 0.875183
vt 0.259520 0.982225
vt 0.302959 0.718394
vt 0.302959 0.611353
vt 0.410000 0.611353
vt 0.410000 0.718394
vt 0.919610 0.859218
vt 0.919610 0.752176
vt 0.970690 0.752176
vt 0.970690 0.859218
vt 0.865026 0.980457
vt 0.813947 0.980457
vt 0.813947 0.873415
vt 0.865026 0.873415
vt 0.172890 0.982225
vt 0.121811 0.982225
vt 0.121811 0.875183
vt 0.172890 0.875183
vt 0.071391 0.966148
vt 0.017775 0.966148
vt 0.017775 0.896537
vt 0.071391 0.897938
vt 0.815073 0.609583
vt 0.868692 0.609585
vt 0.868692 0.716626
vt 0.815076 0.716626
vt 0.657863 0.964469
vt 0.604247 0.964469
vt 0.604247 0.894857
vt 0.657863 0.894857
vt 0.911596 0.267408
vt 0.857980 0.267408
vt 0.857980 0.160367
vt 0.911596 0.160367
vt 0.822155 0.017775
vt 0.823556 0.124817
vt 0.753945 0.124817
vt 0.753945 0.017775
vt 0.779523 0.609585
vt 0.779523 0.716626
vt 0.709911 0.716626
vt 0.709911 0.609585
s 0
usemtl Material
f 5/1/1 20/2/1 9/3/1 10/4/1
f 4/5/2 3/6/2 1/7/2 2/8/2
f 14/9/3 5/10/3 10/11/3 6/12/3
f 20/13/2 11/14/2 17/15/2 9/16/2
f 6/17/4 17/18/4 11/19/4 14/20/4
f 13/21/5 12/22/5 19/23/5 15/24/5
f 8/25/1 7/26/1 12/27/1 13/28/1
f 14/29/6 11/30/6 20/31/6 5/32/6
f 18/33/3 8/34/3 13/35/3 15/36/3
f 10/37/5 9/38/5 17/39/5 6/40/5
f 15/41/4 19/42/4 16/43/4 18/44/4
f 18/45/6 16/46/6 7/47/6 8/48/6
f 7/49/2 16/50/2 19/51/2 12/52/2
f 21/53/4 22/54/4 24/55/4 23/56/4
f 23/57/6 24/58/6 28/59/6 27/60/6
f 27/61/1 28/62/1 26/63/1 25/64/1
f 25/65/5 26/66/5 22/67/5 21/68/5
f 23/69/3 27/70/3 25/71/3 21/72/3
f 28/73/2 24/74/2 22/75/2 26/76/2
f 29/77/4 30/78/4 32/79/4 31/80/4
f 31/81/6 32/82/6 36/83/6 35/84/6
f 35/85/1 36/86/1 34/87/1 33/88/1
f 33/89/5 34/90/5 30/91/5 29/92/5
f 31/93/3 35/94/3 33/95/3 29/96/3
f 36/97/2 32/98/2 30/99/2 34/100/2
f 37/101/4 38/102/4 40/103/4 39/104/4
f 39/105/6 40/106/6 44/107/6 43/108/6
f 43/109/1 44/110/1 42/111/1 41/112/1
f 41/113/5 42/114/5 38/115/5 37/116/5
f 39/117/3 43/118/3 41/119/3 37/120/3
f 44/121/2 40/122/2 38/123/2 42/124/2
f 45/125/4 46/126/4 48/127/4 47/128/4
f 47/129/7 48/130/7 52/131/7 51/132/7
f 51/133/1 52/134/1 50/135/1 49/136/1
f 49/137/5 50/138/5 46/139/5 45/140/5
f 47/141/3 51/142/3 49/143/3 45/144/3
f 52/145/2 48/146/2 46/147/2 50/148/2
