# Blender 5.1.0
# www.blender.org
mtllib deserttrack1.mtl
o Cube
v 1.000000 1.000000 -1.000000
v 1.834573 1.000000 0.846489
v -6.833166 1.014367 5.178942
v 8.307213 0.991291 1.000000
v -4.318573 1.014367 6.798163
v 8.307213 0.991291 -1.000000
v 9.116851 0.991289 1.417444
v 10.597363 0.991289 -0.582556
v 10.816608 1.009274 3.345319
v 11.975821 1.009274 1.370333
v -4.889641 1.009277 38.839512
v 17.495331 1.009275 3.031211
v 17.495331 1.009275 0.621207
v 20.931473 1.009276 1.886872
v 20.221733 1.009276 -0.855254
v 14.783401 1.009274 1.406533
v 13.963557 1.009274 3.729556
v 21.714676 1.009277 2.121508
v 25.198166 1.009277 -0.883725
v 17.954678 1.009277 4.543871
v 20.960732 1.009277 5.625301
v 25.865158 1.009277 3.016739
v 21.466017 1.009277 3.110392
v 17.880928 1.009277 7.445930
v 20.846848 1.009277 6.859390
v 21.280308 1.009277 11.573659
v 23.964310 1.009277 11.133868
v 21.134190 1.009277 12.262044
v 23.677233 1.009277 13.177430
v 22.939939 1.009277 7.804734
v 20.045540 1.009277 9.600195
v 17.145947 1.009277 13.427773
v 19.854969 1.009277 16.810356
v 10.611296 1.009277 13.336838
v 11.106274 1.009277 16.963972
v 6.645534 1.009277 16.154926
v 10.022121 1.009277 18.222996
v 17.923939 1.009277 16.973183
v 16.099646 1.009277 13.281615
v 22.348112 1.009277 14.898117
v 20.811531 1.009277 12.941626
v 19.639015 1.009277 13.333514
v 20.795565 1.009277 16.224585
v 6.711618 1.009277 20.195910
v 9.912712 1.009277 20.189749
v 7.866272 1.009277 23.480101
v 9.858007 1.009277 23.925457
v 10.564198 1.009277 17.593483
v 7.996616 1.009277 13.474485
v 7.541570 1.009277 25.499176
v 9.830655 1.009277 25.486294
v 7.379218 1.009277 35.798595
v 9.816978 1.009277 35.556591
v 6.708911 1.009277 36.303364
v 8.281757 1.009277 38.762238
v 9.823816 1.009277 30.366571
v 7.460394 1.009277 30.494013
v 5.416845 1.009277 36.231663
v 6.228930 1.009277 38.957344
v 1.002403 1.009277 34.310623
v 2.097615 1.009277 40.504051
v -1.339631 1.009277 34.292698
v -0.506744 1.009277 40.948536
v 2.610822 1.009277 39.006119
v 1.988928 1.009277 36.213737
v 2.303162 1.009277 37.624687
v -0.503677 1.009277 38.722248
v -0.193706 1.009277 38.702675
v -2.638435 1.009277 37.512463
v -0.306134 1.009277 36.537338
v -0.658967 1.009277 36.521435
v 2.221068 1.009277 37.256073
v 0.602718 1.009277 37.442860
v 2.261645 1.009277 37.438271
v -2.490366 1.009277 40.972923
v -1.113848 1.009277 38.668312
v -1.902977 1.009277 38.309093
v -3.482176 1.009277 40.258461
v -3.322463 1.009277 34.850697
v -1.191250 1.009277 36.491867
v -4.773019 1.009277 36.631386
v -2.266632 1.009277 36.827404
v -11.835357 1.019005 41.439713
v -12.185448 1.019005 38.601616
v -13.086460 1.023869 37.857147
v -15.031048 1.023869 38.071365
v -13.701308 1.026301 36.694710
v -15.798603 1.026301 36.326389
v -15.284770 1.021437 40.480156
v -13.149965 1.021437 38.576527
v -8.632628 1.014141 38.824078
v -8.516007 1.014141 36.615952
v -10.528440 1.016573 36.835651
v -9.281841 1.016573 39.259476
v -12.619506 1.027517 31.896538
v -14.858083 1.027517 31.721855
v -12.891162 1.028125 25.442507
v -15.175591 1.028125 24.321533
v -15.766247 1.026909 33.670368
v -13.598310 1.026909 33.941872
v -15.191769 1.027821 31.450153
v -12.942660 1.027821 30.847748
v -11.762288 1.028429 23.898691
v -14.104096 1.028429 22.225264
v -12.606562 1.027213 32.761795
v -14.809818 1.027213 32.538700
v -11.719467 1.028581 20.982304
v -14.096007 1.028581 19.867016
v -11.902670 1.028657 14.974669
v -14.296576 1.028657 14.138453
v -12.956411 1.028619 15.560199
v -10.571190 1.028619 16.535950
v -10.319591 1.028695 12.873041
v -12.722180 1.028695 12.176361
v -1.080908 1.000000 3.488724
v -1.744283 1.000000 0.105003
v -2.244283 1.000000 3.488724
v -3.207447 1.000000 0.816565
v -9.368858 1.028714 10.434855
v -11.775789 1.028714 9.807943
v -8.893492 1.028724 9.327952
v -11.302593 1.028724 8.170041
v -3.360379 1.000000 4.227148
v -4.827590 1.000000 2.274339
v -7.719352 1.028728 8.782501
v -10.129539 1.028728 7.133823
v 1.074514 1.388880 -1.131595
v -6.758651 1.403247 5.047346
v 8.381727 1.380172 -1.131595
v 10.671877 1.380169 -0.714152
v 12.050335 1.398154 1.238738
v 17.569845 1.398156 0.489611
v 20.296247 1.398157 -0.986850
v 14.857916 1.398155 1.274938
v 25.272680 1.398157 -1.015320
v 21.035246 1.398157 5.493706
v 25.939672 1.398157 2.885144
v 20.921362 1.398158 6.727795
v 24.038824 1.398158 11.002273
v 23.751747 1.398158 13.045835
v 23.014454 1.398158 7.673138
v 19.929483 1.398158 16.678761
v 11.180788 1.398158 16.832376
v 10.096636 1.398158 18.091400
v 17.998453 1.398158 16.841587
v 22.422626 1.398158 14.766521
v 20.870079 1.398158 16.092989
v 9.987226 1.398158 20.058153
v 9.932522 1.398158 23.793861
v 10.638712 1.398158 17.461887
v 9.746105 1.358932 25.433353
v -11.760842 1.407886 41.308117
v -14.956533 1.412750 37.939770
v -15.724089 1.415182 36.194794
v -15.210256 1.410318 40.348560
v -8.558114 1.403022 38.692482
v -9.207327 1.405454 39.127880
v -14.783568 1.416397 31.590260
v -15.101076 1.417005 24.189938
v -15.691732 1.415789 33.538773
v -15.117254 1.416701 31.318558
v -14.029582 1.417309 22.093668
v -14.735304 1.416093 32.407104
v -14.021493 1.417462 19.735420
v -14.222061 1.417538 14.006858
v -12.881897 1.417500 15.428603
v -12.647666 1.417575 12.044765
v -1.669768 1.388880 -0.026593
v -3.132932 1.388880 0.684969
v -11.701275 1.417595 9.676348
v -11.228079 1.417604 8.038445
v -4.753075 1.388880 2.142744
v -10.055024 1.417609 7.002227
v 1.731655 1.510768 0.903200
v 8.204293 1.502060 1.056711
v -4.421491 1.525135 6.854874
v 9.013931 1.502057 1.474154
v 10.713689 1.520042 3.402030
v 17.392412 1.520044 3.087922
v 20.828554 1.520045 1.943583
v 13.860638 1.520043 3.786267
v 21.611757 1.520045 2.178218
v 17.851759 1.520045 4.600582
v 21.363098 1.520045 3.167103
v 17.778009 1.520046 7.502641
v 21.177389 1.520046 11.630369
v 21.031271 1.520046 12.318754
v 19.942621 1.520046 9.656905
v 17.043028 1.520046 13.484483
v 10.508376 1.520046 13.393548
v 6.542615 1.520046 16.211637
v 15.996726 1.520046 13.338326
v 20.708612 1.520046 12.998336
v 19.536097 1.520046 13.390224
v 6.608699 1.520046 20.252621
v 7.763354 1.520046 23.536812
v 7.893697 1.520046 13.531196
v 7.438651 1.520046 25.555887
v -12.288367 1.529774 38.658325
v -13.189380 1.534638 37.913857
v -13.804228 1.537069 36.751419
v -13.252885 1.532206 38.633236
v -8.618927 1.524910 36.672661
v -10.631359 1.527342 36.892361
v -12.722425 1.538285 31.953249
v -12.994081 1.538893 25.499218
v -13.701230 1.537677 33.998581
v -13.045580 1.538589 30.904459
v -11.865208 1.539197 23.955402
v -12.709481 1.537981 32.818504
v -11.822387 1.539349 21.039015
v -12.005589 1.539425 15.031380
v -10.674109 1.539388 16.592661
v -10.422510 1.539463 12.929751
v -1.183827 1.510768 3.545435
v -2.347201 1.510768 3.545435
v -9.471778 1.539482 10.491566
v -8.996411 1.539492 9.384663
v -3.463297 1.510768 4.283858
v -7.822270 1.539497 8.839211
v 16.329330 0.894069 0.620857
v 13.175830 0.894069 -2.554070
v 28.671341 0.894069 -0.985194
v 22.057014 0.894069 -1.617047
v 26.685291 0.983932 -17.259769
v 6.796764 0.894069 -6.347938
v 11.074541 0.894069 -18.058834
v 11.394739 2.550157 -6.328599
v 10.422969 0.894069 -4.191298
v 15.899852 3.102899 -4.456079
v 17.701385 0.894069 -2.967353
v 25.122318 0.894069 -1.840655
v 24.853077 3.346869 -4.281616
v 28.068211 0.894069 2.963714
v 15.922106 6.214095 -6.055236
v 11.245897 6.214095 -8.148335
v 30.310734 2.722186 -3.637930
v 6.967968 2.011390 33.852997
v 6.585087 1.997066 34.409897
v 7.049144 2.011390 29.854668
v 5.293021 1.986965 34.338196
v 0.878579 1.890373 32.417156
v -1.463455 2.032903 32.399231
v 1.865104 2.005749 34.320271
v -3.446287 2.025621 32.957230
v -4.896843 1.827695 34.737919
v -4.862459 2.349515 40.824017
v 10.188180 1.702949 37.541096
v 8.308939 1.935807 40.746742
v 11.093721 1.722368 30.356436
v 6.256111 2.349515 40.941849
v 2.124796 2.349515 42.488556
v -0.479563 2.349515 42.933041
v 2.638003 2.349515 40.990623
v -2.463184 2.349515 42.957428
v -3.454995 2.349515 42.242966
v 6.823206 2.877404 33.894348
v 6.440325 2.863080 34.451248
v 6.904382 2.877404 29.698320
v 5.148260 2.852979 34.379547
v 0.733817 2.756387 32.458508
v -1.608217 2.898918 32.440582
v 1.720343 2.871764 34.361622
v -3.591048 2.891635 32.998581
v -5.041605 2.693709 34.779270
v -4.836423 3.057050 41.099953
v 10.214215 2.945796 37.617073
v 8.334974 3.226600 40.823467
v 11.119757 2.904418 30.475454
v 6.282147 3.057050 41.217785
v 2.150832 3.057050 42.764492
v -0.453527 3.057050 43.208977
v 2.664039 3.057050 41.266560
v -2.437149 3.057050 43.233364
v -3.428959 3.057050 42.518902
v -0.924405 0.482931 37.572277
v 7.504045 1.054046 28.292009
v 7.404189 1.609583 28.068960
v 9.827236 1.009277 28.884754
v 9.583623 1.319706 28.850554
v -4.857206 1.769618 54.411812
v 5.895174 11.164356 42.451759
v -4.857206 1.769618 30.522221
v 19.013655 0.777450 30.694601
v 19.175442 1.769618 54.411812
v 19.013655 0.777450 54.584190
v 19.175442 1.769618 30.522221
v -5.018993 0.777450 30.694601
v -5.018993 0.777450 54.584190
v 9.812028 0.777450 30.694601
v 9.797625 1.769618 30.522221
v 7.415613 0.777450 30.694601
v 7.450912 1.769618 30.522221
v -5.018993 0.777450 36.475746
v -4.857206 1.769618 36.610603
v -5.018993 0.777450 39.062473
v -4.857206 1.769618 38.955181
vn 0.0032 1.0000 -0.0035
vn 0.0013 1.0000 -0.0003
vn -0.0000 1.0000 -0.0000
vn -0.0064 1.0000 -0.0042
vn 0.0083 0.9999 0.0123
vn 0.0023 1.0000 -0.0034
vn 0.0009 1.0000 -0.0003
vn 0.0009 1.0000 0.0016
vn -0.0001 1.0000 0.0017
vn 0.0010 1.0000 0.0004
vn 0.0013 1.0000 0.0001
vn 0.0017 1.0000 -0.0004
vn -0.0000 1.0000 0.0004
vn -0.0000 1.0000 0.0002
vn -0.0001 1.0000 0.0001
vn -0.0000 1.0000 0.0001
vn -0.9833 0.1577 -0.0907
vn 0.5014 0.1896 0.8442
vn -0.9197 0.2720 0.2830
vn -0.7556 -0.0754 -0.6507
vn 0.7784 0.0622 0.6246
vn 0.2505 -0.3530 -0.9014
vn 0.9823 -0.1875 0.0022
vn 0.4664 0.2021 0.8612
vn -0.4597 -0.2044 -0.8642
vn -0.6439 -0.1317 -0.7537
vn 0.9568 -0.0898 0.2764
vn 0.6821 -0.3483 -0.6430
vn -0.6437 -0.1317 -0.7538
vn 0.3630 0.2355 0.9015
vn 0.0054 0.3196 0.9475
vn -0.0800 -0.3057 -0.9488
vn 0.8737 -0.2976 -0.3847
vn 0.9823 -0.1871 0.0034
vn 0.6568 0.1258 0.7435
vn -0.3838 0.3611 0.8499
vn -0.5197 -0.1828 -0.8345
vn 0.2684 0.2622 0.9269
vn 0.5894 -0.3580 -0.7242
vn -0.1683 0.3448 0.9235
vn 0.9273 -0.0523 0.3706
vn 0.9828 -0.1843 0.0119
vn 0.9767 -0.2067 -0.0578
vn 0.8225 0.0345 0.5677
vn -0.9803 0.1412 -0.1377
vn -0.9829 0.1835 -0.0144
vn 0.8903 -0.0166 0.4551
vn -0.7722 0.3314 0.5420
vn 0.4271 0.2153 0.8782
vn 0.9828 -0.1533 0.1034
vn -0.9572 0.2388 0.1637
vn -0.9839 0.1700 -0.0547
vn 0.0004 0.3205 0.9473
vn 0.9621 -0.0982 0.2546
vn 0.7618 0.0719 0.6438
vn -0.7902 -0.0551 -0.6104
vn -0.9973 -0.0303 -0.0670
vn 0.0013 -0.3208 -0.9472
vn -0.0122 0.3226 0.9465
vn 0.6638 0.1225 0.7378
vn -0.5492 -0.1716 -0.8179
vn -0.7423 -0.2198 0.6330
vn -0.1371 -0.1365 0.9811
vn -0.1935 0.0697 -0.9786
vn -0.9269 -0.1485 -0.3446
vn -0.9217 -0.1458 -0.3594
vn 0.6888 0.2156 -0.6921
vn 0.0523 -0.0998 0.9936
vn 0.7275 0.0708 0.6825
vn -0.9323 -0.2198 0.2872
vn 0.1080 -0.0882 0.9902
vn 0.9564 0.1660 0.2405
vn 0.8953 0.1332 0.4251
vn -0.3157 0.0416 -0.9479
vn 0.0376 -0.1028 0.9940
vn 0.9715 0.1784 0.1562
vn -0.9550 -0.1650 -0.2466
vn -0.9784 -0.1875 -0.0870
vn -0.8034 -0.0967 -0.5875
vn -0.9098 -0.1399 -0.3907
vn 0.9805 0.1948 0.0249
vn 0.3167 -0.0414 0.9476
vn -0.9799 -0.1991 0.0146
vn 0.4501 0.1876 -0.8730
vn -0.7952 -0.0937 -0.5990
vn 0.0100 -0.1084 0.9941
vn -0.8617 -0.2242 0.4553
vn -0.7629 -0.0825 -0.6412
vn 0.1201 0.1334 -0.9838
vn -0.5517 -0.0186 -0.8338
vn 0.8262 0.2239 -0.5170
vn 0.9798 0.1992 -0.0160
vn -0.9805 -0.1965 -0.0094
vn 0.7309 0.2190 -0.6464
vn -0.6706 -0.0530 -0.7399
vn 0.2832 0.1620 -0.9453
vn 0.8855 0.1289 0.4464
vn -0.9805 -0.1960 -0.0144
vn -0.4213 0.0158 -0.9068
vn 0.9637 0.1715 0.2046
vn -0.0261 -0.1155 0.9930
vn 0.9200 0.2213 -0.3235
vn -0.5040 -0.0057 -0.8637
vn -0.0000 0.1104 -0.9939
vn 0.3778 -0.0266 0.9255
vn -0.9804 -0.1935 -0.0367
vn 0.0237 0.1150 -0.9931
vn 0.3032 -0.8117 -0.4992
vn 0.7764 -0.6266 0.0673
vn 0.2958 -0.8155 -0.4974
vn 0.3823 -0.4106 -0.8278
vn -0.0362 -0.9175 -0.3961
vn -0.0000 -1.0000 -0.0000
vn 0.0232 -0.9830 0.1823
vn 0.2494 -0.8138 -0.5250
vn -0.1308 -0.9785 0.1597
vn -0.7541 -0.2959 -0.5863
vn -0.0564 -0.9041 0.4235
vn 0.0666 -0.6816 -0.7287
vn -0.5548 0.8309 0.0416
vn 0.1289 0.8765 0.4638
vn 0.3762 0.8430 0.3845
vn -0.7100 0.6113 0.3495
vn 0.4058 0.8326 0.3769
vn -0.0000 0.8867 0.4623
vn 0.0238 0.8937 0.4480
vn 0.9176 0.3972 0.0160
vn -0.0291 0.8864 0.4620
vn -0.0069 0.8287 -0.5596
vn -0.6189 0.7843 -0.0444
vn -0.0949 0.8256 -0.5563
vn 0.4950 0.7169 -0.4910
vn -0.0075 0.8287 -0.5596
vn 0.0403 0.8674 -0.4959
vn 0.3761 0.7655 -0.5221
vn -0.4851 0.8256 -0.2883
vn -0.8464 0.4466 -0.2900
vn 0.7663 0.0978 0.6351
vn -0.0055 -0.0486 0.9988
vn -0.8711 -0.1676 0.4617
vn 0.8177 0.1097 0.5650
vn 0.2709 -0.0007 0.9626
vn -0.0107 -0.0495 0.9987
vn -0.0549 -0.0568 0.9969
vn 0.9859 0.1661 0.0195
vn -0.8600 0.0483 -0.5080
vn 0.5606 0.2829 -0.7783
vn -0.1567 0.3638 -0.9182
vn -0.1297 0.1756 -0.9759
vn 0.6890 0.2412 -0.6834
vn -0.0115 0.3637 -0.9315
vn -0.9916 0.0314 -0.1254
vn -0.9340 0.1592 -0.3200
vn -0.0126 0.3637 -0.9314
vn -0.3345 0.9184 -0.2114
vn -0.0258 0.9125 -0.4082
vn -0.0246 0.8963 0.4427
vn 0.2851 0.9459 0.1547
vn -0.2897 0.9119 0.2907
vn 0.0378 0.9033 -0.4273
vn -0.0200 0.8959 0.4437
vn 0.2913 0.9181 -0.2689
vn 0.1275 0.9037 0.4088
vn 0.1820 0.8983 -0.3999
vn 0.9821 0.1881 0.0086
vn 0.0106 0.9999 -0.0072
vn -0.8939 -0.4476 -0.0243
vn -0.6580 0.7530 -0.0000
vn -0.0000 0.7856 -0.6187
vn 0.5775 0.8164 -0.0000
vn -0.0000 0.7864 0.6177
vn -0.0000 -0.1712 -0.9852
vn -0.9870 0.1609 -0.0000
vn -0.0000 0.1712 0.9852
vn 0.9870 -0.1609 -0.0000
vt 0.062179 0.627300
vt 0.043472 0.577425
vt 0.087403 0.569333
vt 0.092245 0.607586
vt 0.119050 0.700258
vt 0.142920 0.681810
vt 0.223422 0.734070
vt 0.206230 0.755906
vt 0.236375 0.736933
vt 0.231693 0.769945
vt 0.270883 0.742714
vt 0.262806 0.771229
vt 0.302269 0.052621
vt 0.315302 0.091115
vt 0.299920 0.099257
vt 0.270782 0.066583
vt 0.296111 0.794186
vt 0.305679 0.761529
vt 0.340581 0.797372
vt 0.321187 0.824383
vt 0.366396 0.836026
vt 0.340842 0.858120
vt 0.378031 0.838376
vt 0.381790 0.889596
vt 0.411739 0.869625
vt 0.388057 0.827259
vt 0.375782 0.780567
vt 0.418885 0.800407
vt 0.397583 0.745592
vt 0.430692 0.781130
vt 0.463853 0.775221
vt 0.438764 0.735695
vt 0.468717 0.720006
vt 0.498455 0.745718
vt 0.473757 0.709793
vt 0.510806 0.720637
vt 0.509502 0.660949
vt 0.467839 0.679230
vt 0.441948 0.651830
vt 0.504524 0.646502
vt 0.488716 0.623469
vt 0.429083 0.642108
vt 0.359951 0.582488
vt 0.411102 0.531759
vt 0.406080 0.515491
vt 0.331257 0.554108
vt 0.332780 0.504816
vt 0.403555 0.500073
vt 0.475628 0.697259
vt 0.513206 0.690343
vt 0.360266 0.446075
vt 0.410902 0.463537
vt 0.394904 0.396635
vt 0.430519 0.402497
vt 0.404865 0.364259
vt 0.439708 0.377481
vt 0.465766 0.298336
vt 0.427776 0.286530
vt 0.442284 0.197047
vt 0.480997 0.211737
vt 0.434940 0.184742
vt 0.473212 0.157981
vt 0.458875 0.323007
vt 0.418526 0.321070
vt 0.414777 0.175803
vt 0.446487 0.140392
vt 0.391349 0.108403
vt 0.375795 0.129314
vt 0.343208 0.095347
vt 0.388709 0.080712
vt 0.338621 0.093106
vt 0.351556 0.059350
vt 0.359833 0.149397
vt 0.371678 0.134595
vt 0.373712 0.131988
vt 0.347184 0.119674
vt 0.327635 0.126734
vt 0.328613 0.165292
vt 0.315180 0.122112
vt 0.322619 0.124870
vt 0.300506 0.149700
vt 0.277606 0.133569
vt 0.329144 0.090236
vt 0.321644 0.048219
vt 0.301905 0.111460
vt 0.262782 0.102516
vt 0.013739 0.522914
vt 0.058744 0.518201
vt 0.199890 0.049847
vt 0.182059 0.082394
vt 0.157265 0.062405
vt 0.162889 0.029456
vt 0.131753 0.032454
vt 0.143660 0.060763
vt 0.138126 0.069359
vt 0.113477 0.056101
vt 0.127816 0.081782
vt 0.101214 0.079879
vt 0.207385 0.090788
vt 0.209705 0.056560
vt 0.094624 0.132406
vt 0.127678 0.138928
vt 0.124971 0.148955
vt 0.090819 0.146267
vt 0.087467 0.151072
vt 0.119179 0.162369
vt 0.104363 0.240591
vt 0.064961 0.241256
vt 0.123611 0.118605
vt 0.093327 0.110647
vt 0.104765 0.269541
vt 0.060364 0.276468
vt 0.092069 0.310083
vt 0.048816 0.309953
vt 0.022363 0.382866
vt 0.066419 0.380630
vt 0.042309 0.397659
vt 0.005894 0.402564
vt 0.043247 0.443265
vt 0.006268 0.437288
vt 0.089655 0.671452
vt 0.117499 0.635156
vt 0.075866 0.654205
vt 0.104412 0.625138
vt 0.044323 0.481964
vt 0.006154 0.478062
vt 0.047491 0.501096
vt 0.006548 0.502264
vt 0.433801 0.787203
vt 0.424548 0.804740
vt 0.038691 0.582121
vt 0.009185 0.527159
vt 0.501915 0.750611
vt 0.465778 0.780649
vt 0.410782 0.502715
vt 0.413182 0.516283
vt 0.000292 0.439625
vt 0.000419 0.402114
vt 0.128698 0.027965
vt 0.164942 0.025181
vt 0.059387 0.242061
vt 0.082120 0.150358
vt 0.337856 0.862404
vt 0.317658 0.828848
vt 0.415402 0.873120
vt 0.515734 0.661670
vt 0.519185 0.692464
vt 0.001372 0.505329
vt -0.000000 0.480488
vt 0.015123 0.380922
vt 0.204553 0.046128
vt 0.116515 0.705636
vt 0.086616 0.676551
vt 0.381352 0.894437
vt 0.494975 0.620413
vt 0.510617 0.645389
vt 0.095500 0.079362
vt 0.107496 0.054468
vt 0.042792 0.309892
vt 0.053880 0.277227
vt 0.293213 0.799220
vt 0.084297 0.144479
vt 0.230212 0.775037
vt 0.204047 0.761263
vt 0.419122 0.529807
vt 0.088224 0.111912
vt 0.088509 0.133615
vt 0.057790 0.631572
vt 0.515749 0.724188
vt 0.436119 0.406884
vt 0.416848 0.467402
vt 0.260993 0.776877
vt 0.072248 0.658754
vt 0.445137 0.380399
vt 0.214682 0.052539
vt 0.073203 0.385254
vt 0.050357 0.400539
vt 0.435729 0.656636
vt 0.422722 0.647803
vt 0.308864 0.754760
vt 0.345415 0.791433
vt 0.094519 0.565295
vt 0.099408 0.603065
vt 0.050526 0.441642
vt 0.052337 0.479727
vt 0.393341 0.739079
vt 0.435646 0.728232
vt 0.352426 0.587864
vt 0.321438 0.555657
vt 0.177620 0.087382
vt 0.153981 0.067570
vt 0.132240 0.150541
vt 0.126492 0.164080
vt 0.202510 0.097113
vt 0.376163 0.832629
vt 0.380458 0.824373
vt 0.466789 0.706524
vt 0.467732 0.696547
vt 0.369260 0.829517
vt 0.460331 0.682025
vt 0.387268 0.392074
vt 0.397139 0.360678
vt 0.100089 0.311489
vt 0.146709 0.067035
vt 0.143244 0.072917
vt 0.111700 0.240111
vt 0.112649 0.269381
vt 0.054370 0.496953
vt 0.367275 0.777805
vt 0.134491 0.138016
vt 0.224946 0.727189
vt 0.237234 0.729360
vt 0.134406 0.084158
vt 0.130107 0.117226
vt 0.272239 0.736449
vt 0.108606 0.619291
vt 0.463554 0.715055
vt 0.324950 0.501539
vt 0.353411 0.441397
vt 0.122263 0.628991
vt 0.147738 0.675184
vt 0.064010 0.513066
vt 0.793754 0.844901
vt 0.773836 0.907565
vt 0.721220 0.894429
vt 0.731144 0.796840
vt 0.738750 0.982950
vt 0.519185 0.915627
vt 0.662000 0.860403
vt 0.674803 0.809532
vt 0.774924 0.759964
vt 0.844364 0.774813
vt 0.782090 0.681289
vt 0.519185 0.623941
vt 0.716482 0.650871
vt 0.703650 0.585572
vt 0.786425 0.505394
vt 0.752386 0.569524
vt 0.766209 0.630324
vt 0.287784 0.173512
vt 0.267834 0.159814
vt 0.418373 0.230882
vt 0.414971 0.218585
vt 0.341321 0.185242
vt 0.310910 0.181070
vt 0.251446 0.132458
vt 0.395963 0.206482
vt 0.409695 0.292334
vt 0.334951 0.012548
vt 0.365544 0.022560
vt 0.498325 0.182796
vt 0.491068 0.302894
vt 0.402113 0.044433
vt 0.281572 0.024789
vt 0.315072 0.015041
vt 0.413303 0.069200
vt 0.468238 0.107311
vt 0.487636 0.132008
vt 0.258695 0.166819
vt 0.241947 0.139741
vt 0.388017 0.217711
vt 0.336170 0.199055
vt 0.307694 0.189839
vt 0.405324 0.232656
vt 0.402452 0.224122
vt 0.281146 0.181924
vt 0.395965 0.291473
vt 0.504009 0.120363
vt 0.519185 0.178930
vt 0.316202 0.001613
vt 0.338193 0.000000
vt 0.370811 0.011011
vt 0.409679 0.034115
vt 0.476674 0.097171
vt 0.281645 0.011077
vt 0.512278 0.302094
vt 0.422676 0.058473
vt 0.325368 0.107990
vt 0.408573 0.321821
vt 0.464980 0.325765
vt 0.985264 0.097475
vt 0.799444 0.241960
vt 0.585975 0.083562
vt 0.676823 0.026072
vt 0.723019 0.019779
vt 0.680817 0.486053
vt 0.557006 0.374138
vt 0.544158 0.324283
vt 0.983443 0.417927
vt 0.519185 0.318513
vt 0.570317 0.069756
vt 0.731545 0.000000
vt 1.000000 0.085276
vt 1.000000 0.427664
vt 0.675267 0.505394
vt 0.544433 0.388639
vt 0.664424 0.011077
s 0
usemtl Material
f 124/1/1 3/2/1 5/3/1 123/4/1
f 1/5/2 2/6/2 4/7/2 6/8/2
f 6/8/3 4/7/3 7/9/3 8/10/3
f 8/10/4 7/9/4 9/11/4 10/12/4
f 78/13/3 77/14/3 69/15/3 11/16/3
f 16/17/3 17/18/3 12/19/3 13/20/3
f 13/20/3 12/19/3 14/21/3 15/22/3
f 10/12/3 9/11/3 17/18/3 16/17/3
f 15/22/3 14/21/3 18/23/3 19/24/3
f 22/25/3 23/26/3 20/27/3 21/28/3
f 19/24/3 18/23/3 23/26/3 22/25/3
f 21/28/3 20/27/3 24/29/3 25/30/3
f 30/31/3 31/32/3 26/33/3 27/34/3
f 27/34/3 26/33/3 28/35/3 29/36/3
f 25/30/3 24/29/3 31/32/3 30/31/3
f 43/37/3 42/38/3 32/39/3 33/40/3
f 38/41/3 39/42/3 34/43/3 35/44/3
f 48/45/3 49/46/3 36/47/3 37/48/3
f 33/40/3 32/39/3 39/42/3 38/41/3
f 29/36/3 28/35/3 41/49/3 40/50/3
f 40/50/3 41/49/3 42/38/3 43/37/3
f 37/48/3 36/47/3 44/51/3 45/52/3
f 45/52/3 44/51/3 46/53/3 47/54/3
f 35/44/3 34/43/3 49/46/3 48/45/3
f 47/54/3 46/53/3 50/55/3 51/56/3
f 56/57/3 57/58/3 52/59/3 53/60/3
f 53/60/3 52/59/3 54/61/3 55/62/3
f 279/63/5 277/64/5 57/58/5 56/57/5
f 55/62/3 54/61/3 58/65/3 59/66/3
f 64/67/3 66/68/3 68/69/3 61/70/3
f 61/70/3 68/69/3 67/71/3 63/72/3
f 59/66/3 58/65/3 65/73/3 72/74/3 74/75/3 66/68/3 64/67/3
f 68/69/3 66/68/3 74/75/3 73/76/3
f 70/77/3 72/74/3 65/73/3 60/78/3
f 80/79/3 71/80/3 62/81/3 79/82/3
f 71/80/3 70/77/3 60/78/3 62/81/3
f 73/76/3 74/75/3 72/74/3 70/77/3
f 63/72/3 67/71/3 76/83/3 75/84/3
f 75/84/3 76/83/3 77/14/3 78/13/3
f 82/85/3 80/79/3 79/82/3 81/86/3
f 69/15/3 82/85/3 81/86/3 11/16/3
f 126/87/6 125/88/6 5/3/6 3/2/6
f 94/89/7 93/90/7 84/91/7 83/92/7
f 89/93/8 90/94/8 85/95/8 86/96/8
f 86/96/9 85/95/9 87/97/9 88/98/9
f 83/92/10 84/91/10 90/94/10 89/93/10
f 11/16/11 81/86/11 92/99/11 91/100/11
f 91/100/12 92/99/12 93/90/12 94/89/12
f 106/101/13 105/102/13 95/103/13 96/104/13
f 101/105/3 102/106/3 97/107/3 98/108/3
f 88/98/14 87/97/14 100/109/14 99/110/14
f 96/104/13 95/103/13 102/106/13 101/105/13
f 98/108/15 97/107/15 103/111/15 104/112/15
f 99/110/14 100/109/14 105/102/14 106/101/14
f 104/112/16 103/111/16 107/113/16 108/114/16
f 111/115/3 112/116/3 109/117/3 110/118/3
f 108/114/3 107/113/3 112/116/3 111/115/3
f 110/118/3 109/117/3 113/119/3 114/120/3
f 1/5/3 116/121/3 115/122/3 2/6/3
f 116/121/3 118/123/3 117/124/3 115/122/3
f 114/120/3 113/119/3 119/125/3 120/126/3
f 120/126/3 119/125/3 121/127/3 122/128/3
f 118/123/3 124/1/3 123/4/3 117/124/3
f 122/128/3 121/127/3 125/88/3 126/87/3
f 21/28/17 25/30/17 138/129/17 136/130/17
f 126/87/18 3/2/18 128/131/18 173/132/18
f 30/31/19 27/34/19 139/133/19 141/134/19
f 48/45/20 37/48/20 144/135/20 150/136/20
f 110/118/21 114/120/21 167/137/21 165/138/21
f 83/92/22 89/93/22 155/139/22 152/140/22
f 101/105/23 98/108/23 159/141/23 161/142/23
f 13/20/24 15/22/24 133/143/24 132/144/24
f 22/25/25 21/28/25 136/130/25 137/145/25
f 40/50/26 43/37/26 147/146/26 146/147/26
f 120/126/27 122/128/27 171/148/27 170/149/27
f 111/115/28 110/118/28 165/138/28 166/150/28
f 94/89/29 83/92/29 152/140/29 157/151/29
f 116/121/30 1/5/30 127/152/30 168/153/30
f 15/22/31 19/24/31 135/154/31 133/143/31
f 33/40/32 38/41/32 145/155/32 142/156/32
f 86/96/33 88/98/33 154/157/33 153/158/33
f 104/112/34 108/114/34 164/159/34 162/160/34
f 122/128/35 126/87/35 173/132/35 171/148/35
f 25/30/36 30/31/36 141/134/36 138/129/36
f 43/37/37 33/40/37 142/156/37 147/146/37
f 16/17/38 13/20/38 132/144/38 134/161/38
f 96/104/39 101/105/39 161/142/39 158/162/39
f 6/8/40 8/10/40 130/163/40 129/164/40
f 114/120/41 120/126/41 170/149/41 167/137/41
f 35/44/20 48/45/20 150/136/20 143/165/20
f 88/98/42 99/110/42 160/166/42 154/157/42
f 106/101/43 96/104/43 158/162/43 163/167/43
f 3/2/44 124/1/44 172/168/44 128/131/44
f 27/34/45 29/36/45 140/169/45 139/133/45
f 45/52/46 47/54/46 149/170/46 148/171/46
f 98/108/47 104/112/47 162/160/47 159/141/47
f 8/10/48 10/12/48 131/172/48 130/163/48
f 118/123/49 116/121/49 168/153/49 169/173/49
f 89/93/50 86/96/50 153/158/50 155/139/50
f 19/24/51 22/25/51 137/145/51 135/154/51
f 37/48/52 45/52/52 148/171/52 144/135/52
f 1/5/53 6/8/53 129/164/53 127/152/53
f 108/114/54 111/115/54 166/150/54 164/159/54
f 99/110/55 106/101/55 163/167/55 160/166/55
f 29/36/56 40/50/56 146/147/56 140/169/56
f 47/54/57 51/56/57 151/174/57 149/170/57
f 38/41/58 35/44/58 143/165/58 145/155/58
f 10/12/59 16/17/59 134/161/59 131/172/59
f 124/1/60 118/123/60 169/173/60 172/168/60
f 91/100/61 94/89/61 157/151/61 156/175/61
f 109/117/62 112/116/62 213/176/62 212/177/62
f 39/42/63 32/39/63 189/178/63 192/179/63
f 12/19/64 17/18/64 181/180/64 179/181/64
f 123/4/65 5/3/65 176/182/65 219/183/65
f 119/125/66 113/119/66 214/184/66 217/185/66
f 31/32/67 24/29/67 185/186/67 188/187/67
f 49/46/68 34/43/68 190/188/68 197/189/68
f 84/91/69 93/90/69 204/190/69 199/191/69
f 102/106/70 95/103/70 205/192/70 208/193/70
f 93/90/71 92/99/71 203/194/71 204/190/71
f 23/26/72 18/23/72 182/195/72 184/196/72
f 41/49/73 28/35/73 187/197/73 193/198/73
f 14/21/74 12/19/74 179/181/74 180/199/74
f 32/39/75 42/38/75 194/200/75 189/178/75
f 50/55/76 46/53/76 196/201/76 198/202/76
f 112/116/77 107/113/77 211/203/77 213/176/77
f 85/95/78 90/94/78 202/204/78 200/205/78
f 103/111/79 97/107/79 206/206/79 209/207/79
f 121/127/80 119/125/80 217/185/80 218/208/80
f 24/29/81 20/27/81 183/209/81 185/186/81
f 42/38/82 41/49/82 193/198/82 194/200/82
f 95/103/83 105/102/83 210/210/83 205/192/83
f 7/9/84 4/7/84 175/211/84 177/212/84
f 113/119/85 109/117/85 212/177/85 214/184/85
f 34/43/86 39/42/86 192/179/86 190/188/86
f 87/97/87 85/95/87 200/205/87 201/213/87
f 105/102/88 100/109/88 207/214/88 210/210/88
f 17/18/89 9/11/89 178/215/89 181/180/89
f 117/124/90 123/4/90 219/183/90 216/216/90
f 26/33/91 31/32/91 188/187/91 186/217/91
f 44/51/92 36/47/92 191/218/92 195/219/92
f 97/107/93 102/106/93 208/193/93 206/206/93
f 9/11/94 7/9/94 177/212/94 178/215/94
f 2/6/95 115/122/95 215/220/95 174/221/95
f 18/23/96 14/21/96 180/199/96 182/195/96
f 36/47/97 49/46/97 197/189/97 191/218/97
f 107/113/98 103/111/98 209/207/98 211/203/98
f 125/88/99 121/127/99 218/208/99 220/222/99
f 28/35/100 26/33/100 186/217/100 187/197/100
f 90/94/101 84/91/101 199/191/101 202/204/101
f 46/53/102 44/51/102 195/219/102 196/201/102
f 5/3/103 125/88/103 220/222/103 176/182/103
f 115/122/104 117/124/104 216/216/104 215/220/104
f 20/27/105 23/26/105 184/196/105 183/209/105
f 100/109/106 87/97/106 201/213/106 207/214/106
f 4/7/107 2/6/107 174/221/107 175/211/107
f 222/223/108 229/224/108 228/225/108 230/226/108
f 226/227/109 227/228/109 236/229/109 228/225/109
f 228/225/110 229/224/110 226/227/110
f 228/225/111 236/229/111 235/230/111 230/226/111
f 230/226/112 231/231/112 221/232/112 222/223/112
f 221/232/113 231/231/113 224/233/113
f 230/226/114 225/234/114 233/235/114
f 233/235/115 237/236/115 234/237/115 223/238/115 232/239/115
f 233/235/116 225/234/116 237/236/116
f 230/226/117 235/230/117 225/234/117
f 235/230/118 236/229/118 227/228/118 225/234/118
f 233/235/119 232/239/119 224/233/119 231/231/119 230/226/119
f 237/236/120 225/234/120 234/237/120
f 79/82/121 62/81/121 243/240/121 245/241/121
f 54/61/122 52/59/122 238/242/122 239/243/122
f 60/78/123 65/73/123 244/244/123 242/245/123
f 81/86/124 79/82/124 245/241/124 246/246/124
f 65/73/125 58/65/125 241/247/125 244/244/125
f 62/81/126 60/78/126 242/245/126 243/240/126
f 52/59/127 57/58/127 240/248/127 238/242/127
f 58/65/128 54/61/128 239/243/128 241/247/128
f 63/72/129 75/84/129 255/249/129 253/250/129
f 56/57/130 53/60/130 248/251/130 250/252/130
f 61/70/131 63/72/131 253/250/131 252/253/131
f 78/13/132 11/16/132 247/254/132 256/255/132
f 59/66/133 64/67/133 254/256/133 251/257/133
f 55/62/134 59/66/134 251/257/134 249/258/134
f 75/84/135 78/13/135 256/255/135 255/249/135
f 53/60/136 55/62/136 249/258/136 248/251/136
f 64/67/137 61/70/137 252/253/137 254/256/137
f 246/246/138 245/241/138 264/259/138 265/260/138
f 244/244/139 241/247/139 260/261/139 263/262/139
f 242/245/140 244/244/140 263/262/140 261/263/140
f 239/243/141 238/242/141 257/264/141 258/265/141
f 245/241/142 243/240/142 262/266/142 264/259/142
f 243/240/143 242/245/143 261/263/143 262/266/143
f 241/247/144 239/243/144 258/265/144 260/261/144
f 238/242/145 240/248/145 259/267/145 257/264/145
f 248/251/146 249/258/146 268/268/146 267/269/146
f 255/249/147 256/255/147 275/270/147 274/271/147
f 252/253/148 253/250/148 272/272/148 271/273/148
f 249/258/149 251/257/149 270/274/149 268/268/149
f 256/255/150 247/254/150 266/275/150 275/270/150
f 253/250/151 255/249/151 274/271/151 272/272/151
f 250/252/152 248/251/152 267/269/152 269/276/152
f 254/256/153 252/253/153 271/273/153 273/277/153
f 251/257/154 254/256/154 273/277/154 270/274/154
f 68/69/155 73/76/155 276/278/155
f 67/71/156 68/69/156 276/278/156
f 71/80/157 80/79/157 276/278/157
f 82/85/158 69/15/158 276/278/158
f 73/76/159 70/77/159 276/278/159
f 76/83/160 67/71/160 276/278/160
f 70/77/161 71/80/161 276/278/161
f 69/15/162 77/14/162 276/278/162
f 80/79/163 82/85/163 276/278/163
f 77/14/164 76/83/164 276/278/164
f 50/55/165 198/202/165 278/279/165 277/64/165
f 51/56/166 50/55/166 277/64/166 279/63/166
f 51/56/167 279/63/167 280/280/167 151/174/167
f 281/281/168 282/282/168 283/283/168 295/284/168 297/285/168
f 283/283/169 282/282/169 287/286/169 291/287/169 293/288/169
f 287/286/170 282/282/170 285/289/170
f 285/289/171 282/282/171 281/281/171
f 283/283/172 293/288/172 292/290/172 288/291/172
f 281/281/173 297/285/173 296/292/173 289/293/173
f 285/289/174 281/281/174 289/293/174 286/294/174
f 287/286/175 285/289/175 286/294/175 284/295/175
f 290/296/172 291/287/172 287/286/172 284/295/172
f 294/297/173 295/284/173 283/283/173 288/291/173
l 290 292
l 294 296
