# Blender 5.1.0
# www.blender.org
mtllib Untitled.mtl
o Cube
v 2.362197 1.516815 0.000000
v 2.362197 1.516815 1.000000
v 0.192506 1.413189 -0.092895
v -1.667546 1.193084 -1.377111
v -0.234351 1.193084 -1.077784
v -1.346694 1.203957 0.909840
v 0.000000 1.413189 1.000000
v -1.937648 1.236795 0.245590
v -0.374201 1.307024 -0.500000
v -1.985257 1.077942 -0.500000
v -1.537385 1.294523 -1.709701
v -0.117774 1.367358 -1.928620
v -0.656394 1.498532 -3.555803
v 0.823551 1.657169 -2.454870
v 0.224199 1.529619 -2.412183
v -1.195413 1.490276 -2.501541
v 0.495814 1.542762 -4.230941
v 1.119261 1.631015 -2.956773
v 4.052138 2.206989 -4.298834
v 4.096938 2.206989 -3.229438
v 2.608099 1.774889 -2.968429
v 2.273976 1.686637 -4.264887
v 3.352519 2.047706 -3.223610
v 3.163057 2.047706 -4.281860
v 5.590702 2.185206 -4.009227
v 5.046080 2.185206 -2.719162
v 7.081398 1.795560 -2.004472
v 5.617001 1.765334 -1.774803
v 3.699669 1.602093 -0.030772
v 4.793366 1.583131 1.368188
v 4.342515 1.438963 -0.263342
v 5.328381 1.698370 -1.097870
v 7.267558 1.929176 -0.888913
v 2.351759 1.845037 -0.069807
v 0.182068 1.741410 -0.162702
v -0.244789 1.521306 -1.147591
v -0.384638 1.635245 -0.569807
v -0.128211 1.622745 -1.920126
v 0.813114 2.118683 -2.524677
v 0.213761 1.857841 -2.381674
v 1.108823 1.959236 -3.026580
v 4.086500 2.535210 -3.299245
v 2.597662 2.103111 -3.038236
v 3.342081 2.375928 -3.293417
v 5.035642 2.513427 -2.788969
v 5.626780 2.108569 -1.846498
v 3.689232 1.930314 -0.100579
v 4.332077 1.767185 -0.333149
v 5.317943 2.026592 -1.167677
v 7.016943 0.981665 1.511015
v 2.577043 1.029670 2.575451
v -1.259657 0.763351 2.346774
v 0.214846 0.926043 2.575451
v 5.526085 1.117516 2.411496
v 4.835448 1.568667 -0.680606
v 4.825010 1.896888 -0.750413
v 6.585882 1.756153 0.559579
v 8.636519 1.258592 -0.314019
v 8.364425 0.693109 -3.907365
v 5.480675 0.931603 -6.364804
v 3.689764 1.142463 -5.731618
v -0.851931 0.836609 -5.786053
v 2.391724 1.008126 -6.771790
v -2.415975 0.401367 -3.361088
v -3.802262 0.413165 0.172052
v -3.267960 0.160440 -1.774313
v -3.073054 0.451536 0.517255
vn -0.1071 0.9933 0.0429
vn -0.0456 0.9990 -0.0042
vn -0.1207 0.9796 -0.1609
vn -0.0729 0.9971 -0.0221
vn -0.0311 0.9749 0.2206
vn -0.0832 0.9958 0.0370
vn -0.0264 0.9661 0.2570
vn -0.0562 0.9970 -0.0538
vn -0.1911 0.9813 0.0210
vn -0.0882 0.9955 -0.0355
vn -0.3550 0.9338 0.0439
vn 0.0164 0.9999 0.0035
vn 0.1229 0.9756 0.1819
vn -0.0426 0.9987 0.0273
vn 0.1957 0.9706 -0.1399
vn -0.1402 0.9875 0.0720
vn -0.0767 0.9962 -0.0414
vn 0.3784 0.2041 0.9029
vn -0.8651 -0.1094 -0.4895
vn 0.8221 -0.1166 -0.5573
vn -0.2477 -0.2091 -0.9460
vn -0.0517 0.2062 0.9771
vn -0.1361 -0.0528 -0.9893
vn -0.9724 -0.0777 -0.2200
vn 0.6065 0.1838 0.7736
vn 0.0366 -0.2068 -0.9777
vn -0.8121 0.0099 -0.5835
vn 0.0092 0.2083 0.9780
vn 0.4636 -0.1702 -0.8696
vn 0.0124 -0.2076 -0.9781
vn 0.9080 0.0872 0.4097
vn -0.9873 -0.0511 -0.1505
vn -0.5952 0.1490 0.7897
vn -0.0719 0.9501 0.3036
vn -0.1583 0.9391 0.3051
vn -0.0418 0.9529 0.3004
vn 0.0940 0.9320 0.3500
vn -0.1365 0.9906 -0.0098
vn 0.1801 0.8012 0.5706
vn 0.3662 0.8518 0.3745
vn 0.4854 0.8567 -0.1744
vn 0.4564 0.8258 -0.3312
vn 0.0057 0.8527 -0.5225
vn 0.1162 0.8609 -0.4953
vn -0.1862 0.9462 -0.2648
vn -0.4132 0.8822 -0.2256
vn -0.0822 0.9323 -0.3522
vn -0.5311 0.8047 -0.2652
vn -0.6308 0.7716 -0.0817
vn -0.5402 0.8317 -0.1281
vn -0.4830 0.8416 -0.2419
vn -0.3440 0.9390 -0.0014
vn -0.4050 0.9058 0.1247
vn -0.4392 0.8356 0.3300
vt 0.536545 0.314260
vt 0.531921 0.135593
vt 0.606213 0.200756
vt 0.621210 0.304557
vt 0.543937 0.487475
vt 0.621210 0.492724
vt 0.503024 0.267994
vt 0.504817 0.138780
vt 0.455331 0.277599
vt 0.456735 0.176412
vt 0.381919 0.280531
vt 0.383499 0.166671
vt 0.361824 0.189315
vt 0.360244 0.303175
vt 0.362896 0.347769
vt 0.277900 0.224063
vt 0.319738 0.370840
vt 0.219734 0.315249
vt 0.225640 0.522610
vt 0.307204 0.543361
vt 0.309966 0.601050
vt 0.227380 0.591843
vt 0.320830 0.488397
vt 0.218782 0.455894
vt 0.347788 0.680126
vt 0.247494 0.717035
vt 0.409475 0.736110
vt 0.390865 0.851979
vt 0.648638 0.688821
vt 0.542234 0.593521
vt 0.519409 0.645894
vt 0.489908 0.681622
vt 0.588549 0.826187
vt 0.480250 0.871100
vt 0.460406 0.717350
vt 0.765499 0.760824
vt 0.745798 0.712446
vt 0.772636 0.707410
vt 0.792337 0.755789
vt 0.842529 0.238484
vt 0.842529 0.189678
vt 0.869669 0.187095
vt 0.869669 0.235900
vt 0.745798 0.365703
vt 0.792095 0.324348
vt 0.819356 0.323125
vt 0.774315 0.366093
vt 0.785981 0.190607
vt 0.759496 0.129337
vt 0.786757 0.128114
vt 0.813242 0.189385
vt 0.809238 0.779053
vt 0.807781 0.631733
vt 0.835084 0.631244
vt 0.836541 0.778563
vt 0.770851 0.787085
vt 0.769843 0.840185
vt 0.745798 0.830564
vt 0.745798 0.776269
vt 0.883079 0.125337
vt 0.868563 0.171650
vt 0.842529 0.163559
vt 0.857045 0.117246
vt 0.752421 0.659886
vt 0.759044 0.607325
vt 0.785881 0.602289
vt 0.779258 0.654850
vt 0.799824 0.250586
vt 0.827085 0.249363
vt 0.869300 0.008330
vt 0.883013 0.047509
vt 0.856249 0.046835
vt 0.842529 0.007722
vt 0.810143 0.544737
vt 0.837445 0.544248
vt 0.745798 0.008945
vt 0.773059 0.007722
vt 0.764532 0.550565
vt 0.792337 0.544248
vt 0.810143 0.836455
vt 0.837445 0.835965
vt 0.730354 0.524301
vt 0.710197 0.218700
vt 0.730354 0.336134
vt 0.716631 0.758872
vt 0.641942 0.875414
vt 0.819243 0.381537
vt 0.819243 0.528804
vt 0.745798 0.416728
vt 0.506139 0.992278
vt 0.214427 0.958645
vt 0.033793 0.711480
vt 0.090063 0.568534
vt 0.007722 0.460640
vt 0.083152 0.207797
vt 0.261236 0.100510
vt 0.378688 0.043511
vt 0.536095 0.007722
vt 0.838017 0.402731
vt 0.878331 0.381537
vt 0.878331 0.506621
vt 0.834687 0.459177
vt 0.562932 0.067542
s 0
usemtl Material
f 3/1/1 8/2/1 6/3/1 7/4/1
f 1/5/2 3/1/2 7/4/2 2/6/2
f 9/7/3 10/8/3 8/2/3 3/1/3
f 5/9/4 4/10/4 10/8/4 9/7/4
f 4/10/5 5/9/5 12/11/5 11/12/5
f 16/13/6 15/14/6 14/15/6 13/16/6
f 11/12/7 12/11/7 15/14/7 16/13/7
f 13/16/8 14/15/8 18/17/8 17/18/8
f 24/19/9 23/20/9 20/21/9 19/22/9
f 17/18/10 18/17/10 21/23/10 22/24/10
f 22/24/11 21/23/11 23/20/11 24/19/11
f 19/22/12 20/21/12 26/25/12 25/26/12
f 25/26/13 26/25/13 28/27/13 27/28/13
f 1/5/14 2/6/14 30/29/14 29/30/14
f 29/30/15 30/29/15 31/31/15
f 55/32/16 57/33/16 33/34/16 32/35/16
f 32/35/17 33/34/17 27/28/17 28/27/17
f 29/36/18 31/37/18 48/38/18 47/39/18
f 18/40/19 14/41/19 39/42/19 41/43/19
f 28/44/20 26/45/20 45/46/20 46/47/20
f 23/48/21 21/49/21 43/50/21 44/51/21
f 3/52/22 1/53/22 34/54/22 35/55/22
f 14/56/23 15/57/23 40/58/23 39/59/23
f 5/60/24 9/61/24 37/62/24 36/63/24
f 55/64/25 32/65/25 49/66/25 56/67/25
f 20/68/26 23/48/26 44/51/26 42/69/26
f 15/70/27 12/71/27 38/72/27 40/73/27
f 1/53/28 29/74/28 47/75/28 34/54/28
f 26/45/29 20/68/29 42/69/29 45/46/29
f 21/49/30 18/76/30 41/77/30 43/50/30
f 32/65/31 28/78/31 46/79/31 49/66/31
f 12/71/32 5/60/32 36/63/32 38/72/32
f 9/80/33 3/52/33 35/55/33 37/81/33
f 30/29/34 2/6/34 51/82/34
f 7/4/35 6/3/35 52/83/35 53/84/35
f 2/6/36 7/4/36 53/84/36 51/82/36
f 30/29/37 51/82/37 54/85/37 50/86/37
f 31/37/25 55/64/25 56/67/25 48/38/25
f 31/31/38 30/29/38 57/33/38 55/32/38
f 57/87/39 30/88/39 50/89/39
f 33/34/40 57/33/40 50/86/40 58/90/40
f 27/28/41 33/34/41 58/90/41 59/91/41
f 25/26/42 27/28/42 59/91/42 60/92/42
f 19/22/43 25/26/43 60/92/43 61/93/43
f 24/19/44 19/22/44 61/93/44 63/94/44
f 22/24/45 24/19/45 63/94/45 62/95/45
f 13/16/46 17/18/46 62/95/46 64/96/46
f 17/18/47 22/24/47 62/95/47
f 16/13/48 13/16/48 64/96/48
f 11/12/49 16/13/49 64/96/49
f 4/10/50 11/12/50 64/96/50 66/97/50
f 4/10/51 66/97/51 65/98/51
f 10/8/52 4/10/52 65/98/52
f 8/99/53 10/100/53 65/101/53 67/102/53
f 6/3/54 8/2/54 67/103/54 52/83/54
